<svg width="233" height="43" viewBox="0 0 233 43" fill="none" xmlns="http://www.w3.org/2000/svg">
<path d="M32.2764 5.24023H19.0225V42H13.6133V5.24023H0.387695V0.765625H32.2764V5.24023ZM47.4561 42.5664C43.3024 42.5664 39.9229 41.207 37.3174 38.4883C34.7119 35.7507 33.4092 32.0973 33.4092 27.5283V26.5654C33.4092 23.5257 33.985 20.8164 35.1367 18.4375C36.3073 16.0397 37.931 14.1706 40.0078 12.8301C42.1035 11.4707 44.3691 10.791 46.8047 10.791C50.7884 10.791 53.8848 12.1032 56.0938 14.7275C58.3027 17.3519 59.4072 21.109 59.4072 25.999V28.1797H38.6484C38.724 31.2005 39.6019 33.6455 41.2822 35.5146C42.9814 37.3649 45.1338 38.29 47.7393 38.29C49.5895 38.29 51.1566 37.9124 52.4404 37.1572C53.7243 36.402 54.8477 35.4014 55.8105 34.1553L59.0107 36.6475C56.443 40.5934 52.5915 42.5664 47.4561 42.5664ZM46.8047 15.0957C44.6901 15.0957 42.9154 15.8698 41.4805 17.418C40.0456 18.9473 39.1582 21.0996 38.8184 23.875H54.168V23.4785C54.0169 20.8164 53.2995 18.7585 52.0156 17.3047C50.7318 15.832 48.9948 15.0957 46.8047 15.0957ZM80.3076 16.0586C79.5146 15.9264 78.6556 15.8604 77.7305 15.8604C74.2943 15.8604 71.9626 17.3236 70.7354 20.25V42H65.4961V11.3574H70.5938L70.6787 14.8975C72.3968 12.1598 74.8324 10.791 77.9854 10.791C79.0049 10.791 79.779 10.9232 80.3076 11.1875V16.0586ZM102.936 42C102.633 41.3958 102.388 40.3197 102.199 38.7715C99.7637 41.3014 96.8561 42.5664 93.4766 42.5664C90.4557 42.5664 87.973 41.7168 86.0283 40.0176C84.1025 38.2995 83.1396 36.1283 83.1396 33.5039C83.1396 30.3132 84.348 27.8398 86.7646 26.084C89.2002 24.3092 92.6175 23.4219 97.0166 23.4219H102.114V21.0146C102.114 19.1833 101.567 17.7295 100.472 16.6533C99.3766 15.5583 97.7624 15.0107 95.6289 15.0107C93.7598 15.0107 92.1927 15.4827 90.9277 16.4268C89.6628 17.3708 89.0303 18.513 89.0303 19.8535H83.7627C83.7627 18.3242 84.3008 16.8516 85.377 15.4355C86.472 14.0007 87.9447 12.8678 89.7949 12.0371C91.6641 11.2064 93.7126 10.791 95.9404 10.791C99.471 10.791 102.237 11.6784 104.238 13.4531C106.24 15.209 107.278 17.6351 107.354 20.7314V34.835C107.354 37.6481 107.712 39.8854 108.43 41.5469V42H102.936ZM94.2412 38.0068C95.8838 38.0068 97.4414 37.582 98.9141 36.7324C100.387 35.8828 101.453 34.7783 102.114 33.4189V27.1318H98.0078C91.5885 27.1318 88.3789 29.0104 88.3789 32.7676C88.3789 34.4102 88.9264 35.694 90.0215 36.6191C91.1165 37.5443 92.5231 38.0068 94.2412 38.0068ZM120.522 11.3574L120.692 15.209C123.034 12.2637 126.092 10.791 129.868 10.791C136.344 10.791 139.61 14.4443 139.667 21.751V42H134.428V21.7227C134.409 19.5137 133.899 17.8805 132.898 16.8232C131.917 15.766 130.378 15.2373 128.282 15.2373C126.583 15.2373 125.091 15.6904 123.808 16.5967C122.524 17.5029 121.523 18.6924 120.806 20.165V42H115.566V11.3574H120.522ZM146.181 26.3955C146.181 23.3936 146.766 20.6937 147.937 18.2959C149.126 15.8981 150.769 14.0479 152.864 12.7451C154.979 11.4424 157.386 10.791 160.086 10.791C164.258 10.791 167.629 12.2354 170.196 15.124C172.783 18.0127 174.076 21.8548 174.076 26.6504V27.0186C174.076 30.0016 173.5 32.6826 172.349 35.0615C171.216 37.4215 169.583 39.2624 167.449 40.584C165.335 41.9056 162.899 42.5664 160.143 42.5664C155.989 42.5664 152.619 41.1221 150.032 38.2334C147.465 35.3447 146.181 31.5215 146.181 26.7637V26.3955ZM151.448 27.0186C151.448 30.417 152.232 33.1452 153.799 35.2031C155.385 37.2611 157.499 38.29 160.143 38.29C162.805 38.29 164.919 37.2516 166.486 35.1748C168.053 33.0791 168.837 30.1527 168.837 26.3955C168.837 23.0348 168.035 20.3161 166.43 18.2393C164.844 16.1436 162.729 15.0957 160.086 15.0957C157.499 15.0957 155.413 16.1247 153.827 18.1826C152.241 20.2406 151.448 23.1859 151.448 27.0186ZM190.304 34.8916L197.894 11.3574H203.246L192.258 42H188.265L177.163 11.3574H182.516L190.304 34.8916ZM226.752 42C226.45 41.3958 226.204 40.3197 226.016 38.7715C223.58 41.3014 220.673 42.5664 217.293 42.5664C214.272 42.5664 211.789 41.7168 209.845 40.0176C207.919 38.2995 206.956 36.1283 206.956 33.5039C206.956 30.3132 208.164 27.8398 210.581 26.084C213.017 24.3092 216.434 23.4219 220.833 23.4219H225.931V21.0146C225.931 19.1833 225.383 17.7295 224.288 16.6533C223.193 15.5583 221.579 15.0107 219.445 15.0107C217.576 15.0107 216.009 15.4827 214.744 16.4268C213.479 17.3708 212.847 18.513 212.847 19.8535H207.579C207.579 18.3242 208.117 16.8516 209.193 15.4355C210.288 14.0007 211.761 12.8678 213.611 12.0371C215.48 11.2064 217.529 10.791 219.757 10.791C223.287 10.791 226.053 11.6784 228.055 13.4531C230.056 15.209 231.094 17.6351 231.17 20.7314V34.835C231.17 37.6481 231.529 39.8854 232.246 41.5469V42H226.752ZM218.058 38.0068C219.7 38.0068 221.258 37.582 222.73 36.7324C224.203 35.8828 225.27 34.7783 225.931 33.4189V27.1318H221.824C215.405 27.1318 212.195 29.0104 212.195 32.7676C212.195 34.4102 212.743 35.694 213.838 36.6191C214.933 37.5443 216.34 38.0068 218.058 38.0068Z" fill="black"/>
</svg>
